<?xml version="1.0" encoding="UTF-8" standalone="no"?>
<!-- Generator: Adobe Illustrator 14.0.0, SVG Export Plug-In . SVG Version: 6.00 Build 43363)  -->
<svg
   xmlns:dc="http://purl.org/dc/elements/1.1/"
   xmlns:cc="http://creativecommons.org/ns#"
   xmlns:rdf="http://www.w3.org/1999/02/22-rdf-syntax-ns#"
   xmlns:svg="http://www.w3.org/2000/svg"
   xmlns="http://www.w3.org/2000/svg"
   xmlns:sodipodi="http://sodipodi.sourceforge.net/DTD/sodipodi-0.dtd"
   xmlns:inkscape="http://www.inkscape.org/namespaces/inkscape"
   version="1.1"
   id="_x32_0100506171435508_x5F_0001_xA0_Image_1_"
   x="0px"
   y="0px"
   width="550px"
   height="300px"
   viewBox="0 0 400 300"
   enable-background="new 0 0 400 300"
   xml:space="preserve"
   sodipodi:version="0.32"
   inkscape:version="0.46"
   sodipodi:docname="empty.svg"
   inkscape:output_extension="org.inkscape.output.svg.inkscape"><metadata
   id="metadata3949"><rdf:RDF><cc:Work
       rdf:about=""><dc:format>image/svg+xml</dc:format><dc:type
         rdf:resource="http://purl.org/dc/dcmitype/StillImage" /></cc:Work></rdf:RDF></metadata><defs
   id="defs3947"><inkscape:perspective
     sodipodi:type="inkscape:persp3d"
     inkscape:vp_x="0 : 150 : 1"
     inkscape:vp_y="0 : 1000 : 0"
     inkscape:vp_z="400 : 150 : 1"
     inkscape:persp3d-origin="200 : 100 : 1"
     id="perspective3951" /></defs><sodipodi:namedview
   inkscape:window-height="1101"
   inkscape:window-width="1920"
   inkscape:pageshadow="2"
   inkscape:pageopacity="0.0"
   guidetolerance="10.0"
   gridtolerance="10.0"
   objecttolerance="10.0"
   borderopacity="1.0"
   bordercolor="#666666"
   pagecolor="#ffffff"
   id="base"
   showgrid="false"
   inkscape:zoom="2.8284271"
   inkscape:cx="247.43702"
   inkscape:cy="148.93459"
   inkscape:window-x="22"
   inkscape:window-y="22"
   inkscape:current-layer="layer4" />

<g
   inkscape:groupmode="layer"
   id="LAYER_EFO"
   inkscape:label="LAYER_EFO"
   style="display:inline">
    <path
   style="fill:none;fill-rule:evenodd;stroke:none;stroke-width:1px;stroke-linecap:butt;stroke-linejoin:miter;stroke-opacity:1"
   d="M 75.306729,86.533436 C 72.812564,86.105914 72.796124,86.958452 71.771195,89.00831 C 70.496053,91.558594 72.95116,91.483183 74.599622,91.483183 C 76.684847,91.483183 77.781603,90.358441 77.781603,88.301203 C 77.781603,87.026607 76.722757,87.099847 75.306729,86.533436 z"
   id="EFO_0000827"
   inkscape:label="eye" />
    <path
   style="fill:none;fill-rule:evenodd;stroke:none;stroke-width:1px;stroke-linecap:butt;stroke-linejoin:miter;stroke-opacity:1"
   d="M 149.19939,137.79867 C 147.29883,138.77764 143.20364,139.15425 142.48187,142.04132 C 142.0402,143.80801 141.77477,145.31275 141.77477,147.34462 C 141.77477,150.56951 141.56756,153.14782 143.54253,155.12279 C 144.83913,156.41939 146.13145,157.4494 148.13873,157.95122 C 150.67546,158.5854 152.50079,159.83723 154.85624,160.42609 C 157.55079,161.09973 161.43729,159.78722 163.69508,158.65833 C 167.32254,156.84459 169.35193,154.07285 169.35193,149.81949 C 169.35193,145.86465 169.47514,142.4413 167.58416,139.91999 C 166.22304,138.10516 160.34645,137.44512 158.39178,137.44512 C 155.75548,137.44512 153.48547,137.09156 150.6136,137.09156 C 150.08655,137.09156 149.67079,137.56297 149.19939,137.79867 z"
   id="EFO_0000793"
   inkscape:label="digestive system component" />
    <path
   style="fill:none;fill-rule:evenodd;stroke:none;stroke-width:1px;stroke-linecap:butt;stroke-linejoin:miter;stroke-opacity:1"
   d="M 169.70549,161.1332 C 168.47298,160.00404 166.6612,159.59617 164.75574,160.07254 C 163.91019,160.28393 161.74921,164.13973 161.2202,164.66873 C 160.02646,165.86248 158.84062,166.34121 157.68467,167.49716 C 155.99337,169.18846 160.5379,169.61848 161.57376,169.61848 C 164.29307,169.61848 164.6386,168.99923 166.16995,167.85071 C 167.61165,166.76944 168.00131,166.37291 169.35193,165.02229 C 170.64971,163.72451 170.45603,163.00957 169.70549,161.1332 z"
   id="EFO_0000803"
   inkscape:label="renal system" />
    <path
   style="fill:none;fill-rule:evenodd;stroke:none;stroke-width:1px;stroke-linecap:butt;stroke-linejoin:miter;stroke-opacity:1"
   d="M 95.105719,125.42431 C 94.824984,123.42424 93.725822,123.13479 91.570185,122.59588 C 89.71927,122.13315 89.334707,124.94551 88.741758,126.13141 C 87.963344,127.68824 88.920964,130.55326 89.802418,131.43471 C 90.918572,132.55087 91.763544,133.39584 92.630845,134.26314 C 94.029327,135.66162 94.9225,135.29803 95.459276,137.44512 C 95.462416,137.45769 99.62434,133.63361 99.70192,133.55603 C 100.8609,132.39705 101.26737,131.28347 102.53034,130.0205 C 103.68503,128.86581 104.29811,128.50351 104.29811,126.48497 C 104.29811,124.11187 104.18253,123.2163 102.8839,122.24233 C 101.46729,121.17987 99.29674,121.54812 97.93415,121.88877 C 96.193096,122.32404 95.578626,123.53267 95.105719,125.42431 z"
   id="EFO_0000815"
   inkscape:label="heart" />
    <path
   style="fill:none;fill-rule:evenodd;stroke:none;stroke-width:1px;stroke-linecap:butt;stroke-linejoin:miter;stroke-opacity:1"
   d="M 106.57087,96.337981 C 107.38642,96.810229 109.55435,98.810795 110.89375,100.13769 C 112.67919,101.90648 114.51759,103.52242 116.73671,104.83979 C 118.37213,105.81064 119.09067,106.59502 120.56542,106.70151 C 126.13186,107.10345 123.66889,102.37648 121.7525,101.23883 C 119.87681,100.12535 118.66364,98.994008 117.06866,98.047164 C 115.44723,97.084615 113.82579,96.122065 112.20436,95.159515 C 109.73797,93.695366 110.48386,93.241012 108.38532,95.359326 C 107.90169,95.847506 107.17569,96.011765 106.57087,96.337981 z"
   id="EFO_0000265"
   inkscape:label="aorta" />
    <path
   style="fill:none;fill-rule:evenodd;stroke:none;stroke-width:0.99666137px;stroke-linecap:butt;stroke-linejoin:miter;stroke-opacity:1"
   d="M 128.35642,72.454231 C 129.46604,72.345152 131.55484,70.744055 133.09748,69.465448 C 134.47207,68.326133 136.30064,71.192132 137.5136,72.390867 C 139.06685,73.925902 140.62011,75.460936 142.17336,76.99597 C 145.45243,80.236599 148.73151,83.477231 152.0106,86.717855 C 154.68565,89.361521 157.36069,92.005196 160.03574,94.648864 C 163.38933,97.963128 167.51321,101.30169 170.12681,105.1012 C 172.81261,109.00574 176.69492,112.4568 179.16203,116.42865 C 180.24003,118.16419 182.90853,120.61087 184.33446,122.02006 C 186.06027,123.72566 187.78612,125.43125 189.51194,127.13686 C 190.80632,128.41604 192.10069,129.69524 193.39508,130.97443 C 195.51854,133.07301 194.85701,133.05557 192.8316,134.73432 C 191.48428,135.85102 189.86045,133.23694 188.67435,132.06474 C 186.69842,130.11198 185.25205,127.72329 182.73038,125.2312 C 181.27358,123.79149 180.4217,122.64089 179.37517,120.95606 C 178.30023,119.22549 175.93842,117.55961 174.45654,116.09512 C 170.86739,112.54806 167.48916,108.72982 163.84772,105.13111 C 159.61942,100.9524 155.39113,96.77369 151.16283,92.594988 C 149.40502,90.857783 148.26646,89.252923 146.50818,87.515254 C 144.14593,85.180711 142.3237,82.900237 140.04136,80.644669 C 138.5744,79.194914 137.10744,77.745159 135.64049,76.295406 C 134.34612,75.01621 133.05174,73.737015 131.75736,72.457819 C 130.95391,71.663797 130.55912,71.691171 129.6762,71.360343"
   id="EFO_0000110"
   inkscape:label="spinal cord" />
    <path
   style="fill:none;fill-opacity:1;fill-rule:evenodd;stroke:none;stroke-width:1.70173132px;stroke-linecap:butt;stroke-linejoin:miter;stroke-opacity:1;display:inline"
   d="M 67.234724,69.064193 C 66.619042,71.856401 65.08222,73.909452 65.352221,77.99494 C 65.585256,81.52141 65.13898,83.852628 64.04675,86.303321 C 62.442318,89.903318 61.843915,90.387033 62.164224,95.234087 C 62.361563,98.220044 64.888665,99.692693 66.323056,102.04013 C 68.256611,105.20441 70.586877,107.41757 74.137682,108.03976 C 76.905125,108.52472 78.622684,111.14085 81.797512,111.69717 C 84.957796,112.25094 88.507441,112.05805 91.649416,111.10834 C 94.536264,110.23576 96.812504,105.24604 97.34251,103.71351 C 98.459676,100.48318 98.205205,97.743412 99.263751,95.368317 C 100.75779,92.016008 100.04729,88.516585 99.798678,84.754443 C 99.545016,80.916129 98.726877,77.890361 98.447689,73.665415 C 98.246676,70.623745 98.141751,67.582403 97.251474,64.918663 C 96.727506,63.350935 90.964024,62.80404 89.053282,62.469223 C 86.004027,61.934902 82.967567,62.245064 79.778412,62.435668 C 76.30261,62.643403 73.504632,62.867971 71.235391,64.122018 C 68.281699,65.754313 68.058266,64.813887 67.234724,69.064193 z"
   id="EFO_0000943"
   inkscape:label="craniofacial sceleton bone" />
    <path
   style="fill:none;fill-opacity:1;fill-rule:evenodd;stroke:none;stroke-width:1.32237005px;stroke-linecap:butt;stroke-linejoin:miter;stroke-opacity:1"
   d="M 72.026728,73.119354 C 71.391527,75.207208 70.063947,76.693275 70.063947,79.801182 C 70.063947,82.483843 69.587395,84.230053 68.591861,86.037553 C 67.129459,88.692701 66.629079,89.032128 66.629079,92.719381 C 66.629079,94.99086 68.557801,96.221181 69.573251,98.064841 C 70.942074,100.55009 72.675689,102.33258 75.461597,102.96485 C 77.632916,103.45763 78.859021,105.51772 81.349942,106.08303 C 83.829477,106.64577 86.657208,106.66036 89.201069,106.08303 C 91.538335,105.55259 93.606932,101.8748 94.108022,100.73757 C 95.164247,98.340459 95.105979,96.252944 96.070804,94.5012 C 97.43259,92.028732 97.052196,89.34493 97.052196,86.483008 C 97.052196,83.563119 96.561499,81.23337 96.561499,78.019361 C 96.561499,75.705492 96.63775,73.396238 96.070804,71.337533 C 95.73713,70.125892 91.190894,69.450487 89.691764,69.110257 C 87.29934,68.567295 84.872806,68.664803 82.331332,68.664803 C 79.561405,68.664803 77.328649,68.708254 75.461597,69.555713 C 73.031395,70.658786 72.903369,69.936082 72.026728,73.119354 z"
   id="EFO_0000792"
   inkscape:label="craniofacial tissue" />
    <path
   style="fill:none;fill-rule:evenodd;stroke:none;stroke-width:1px;stroke-linecap:butt;stroke-linejoin:miter;stroke-opacity:1"
   d="M 138.94648,127.8992 C 137.68569,127.42125 134.80682,128.25275 132.93607,128.25275 C 129.6315,128.25275 124.52483,130.80166 127.27922,133.55605 C 130.21949,136.49632 130.67861,137.44514 135.05739,137.44514 C 138.12152,137.44514 141.18565,137.44514 144.24978,137.44514 C 147.64266,137.44514 150.15702,135.93153 152.38151,134.26316 C 153.98789,133.05837 153.87186,132.09284 153.44217,130.37407 C 153.14206,129.17362 148.63533,128.37687 146.72465,127.8992 C 145.06293,127.48377 142.7867,127.8992 141.0678,127.8992 C 140.36069,127.8992 139.65359,127.8992 138.94648,127.8992 z"
   id="EFO_0000800"
   inkscape:label="liver and billary system" />
    <path
   style="fill:none;fill-rule:evenodd;stroke:none;stroke-width:1px;stroke-linecap:butt;stroke-linejoin:miter;stroke-opacity:1"
   d="M 172.1805,148.75884 C 171.66265,148.75884 171.29226,153.0189 170.76629,155.1228 C 170.12574,157.68497 170.41092,158.30296 171.82695,159.719 C 173.46881,161.36086 174.65537,157.94706 174.65537,156.53701 C 174.65537,154.53712 175.00038,151.97501 175.36248,150.52661 C 176.13007,147.45624 174.51331,146.42603 172.1805,148.75884 z"
   id="EFO_0000889"
   inkscape:label="smooth muscle" />
    <path
   style="fill:none;fill-rule:evenodd;stroke:none;stroke-width:1px;stroke-linecap:butt;stroke-linejoin:miter;stroke-opacity:1"
   d="M 122.32947,109.86797 C 119.27618,109.82864 112.4894,109.31733 109.9551,112.6964 C 108.94936,114.03739 108.50943,117.35551 107.83378,118.7068 C 106.82343,120.7275 107.23871,123.56198 106.77312,125.42432 C 106.11169,128.07005 107.37036,128.84998 108.89444,130.37407 C 110.63274,132.11236 114.3754,132.84929 117.02617,133.9096 C 119.58677,134.93384 120.92754,131.73914 121.26881,130.37407 C 121.68888,128.69379 124.24999,127.45982 125.51145,125.77787 C 126.51969,124.43356 126.92567,122.05065 126.92567,120.12102 C 126.92567,119.29838 127.63277,116.98448 127.63277,115.17127 C 127.63277,112.95304 126.80126,111.86489 125.51145,110.57508 C 125.17417,110.2378 122.6584,109.9502 122.32947,109.86797 z"
   id="EFO_0000934"
   inkscape:label="lung" />
    <path
   style="fill:none;fill-rule:evenodd;stroke:none;stroke-width:1px;stroke-linecap:butt;stroke-linejoin:miter;stroke-opacity:1"
   d="M 102.17693,101.3827 C 98.216433,100.66875 98.560483,102.25163 96.873623,105.62534 C 95.984783,107.40302 94.617661,108.28524 94.0452,110.57508 C 93.362759,113.30484 95.020294,114.39999 96.520073,115.52483 C 99.914513,118.07065 102.97119,111.46143 103.94469,109.51442 C 104.74822,107.90737 104.88665,105.15054 104.29825,102.79691 C 104.14399,102.17989 102.42589,101.50718 102.17693,101.3827 z"
   id="EFO_0000935"
   inkscape:label="trachea" />
    <path
   style="fill:none;fill-rule:evenodd;stroke:none;stroke-width:1px;stroke-linecap:butt;stroke-linejoin:miter;stroke-opacity:1"
   d="M 154.14928,166.79007 C 154.14928,165.12513 151.73469,164.00686 150.26018,162.90098 C 147.78485,161.04448 144.65827,160.9656 141.42135,160.42611 C 137.08324,159.70309 132.75551,159.719 128.33988,159.719 C 124.05548,159.719 120.53872,159.03488 117.73328,161.84032 C 117.37972,162.19388 117.02617,162.54743 116.67262,162.90098 C 114.62084,164.95276 114.90485,168.05057 114.90485,171.03271 C 114.90485,173.15403 114.90485,175.27535 114.90485,177.39667 C 114.90485,179.63584 114.90485,181.87501 114.90485,184.11419 C 114.90485,187.74144 114.44053,187.92112 118.44038,189.06393 C 120.34377,189.60776 122.15088,189.77104 124.80434,189.77104 C 128.33988,189.77104 131.87541,189.77104 135.41095,189.77104 C 138.47508,189.77104 141.5392,189.77104 144.60333,189.77104 C 146.93579,189.77104 147.70458,189.45785 149.19952,188.71038 C 151.48917,187.56556 152.38978,188.34856 154.50283,186.23551 C 156.38028,184.35806 156.2706,182.69599 156.2706,179.87155 C 156.2706,177.16097 156.2706,174.45039 156.2706,171.73982 C 156.2706,169.25944 155.691,169.10266 154.14928,166.79007 z"
   id="EFO_0000968"
   inkscape:label="abdomen" />
    <path
   style="fill:none;fill-rule:evenodd;stroke:none;stroke-width:0.59759271px;stroke-linecap:butt;stroke-linejoin:miter;stroke-opacity:1"
   d="M 117.70639,188.55428 C 116.95433,188.80211 117.0633,189.91823 116.20923,190.46252 C 115.42342,190.96331 115.89467,191.81758 115.46065,192.37076 C 114.6117,193.45282 115.4006,194.73247 114.71207,195.82945 C 114.36989,196.37462 114.71207,197.06039 114.71207,197.61842 C 114.71207,198.3673 113.99063,198.81107 116.58352,198.81107 C 119.34426,198.81107 118.82926,197.48247 118.82926,196.78357 C 118.82926,195.63067 118.82926,194.47778 118.82926,193.32488 C 118.82926,192.38352 119.03377,191.52484 120.32641,190.70105 C 121.4087,190.01132 121.82356,189.6903 121.82356,188.91207 C 121.82356,188.27484 119.51158,188.32419 117.70639,188.55428 z"
   id="EFO_0001385"
   inkscape:label="tibialis anterior muscle" />
    <path
   style="fill:none;fill-rule:evenodd;stroke:none;stroke-width:1px;stroke-linecap:butt;stroke-linejoin:miter;stroke-opacity:1"
   d="M 125.86501,98.200712 C 127.3125,98.585817 129.25563,101.61163 131.16831,102.0898 C 132.74613,102.48425 133.64318,104.41482 133.64318,105.97889 C 133.64318,108.06701 134.35029,108.99833 134.35029,110.92863 C 134.35029,113.17817 135.56335,114.76743 132.93608,114.11061 C 131.24348,113.68747 130.36257,111.79203 129.7541,110.57508 C 129.4226,109.91209 126.37907,108.61426 125.86501,108.10021 C 124.75427,106.98947 125.1579,104.90153 125.1579,103.15046 C 125.1579,100.96232 127.21638,101.57915 125.86501,98.200712 z"
   id="EFO_0001412"
   inkscape:label="deltoid" />
    <path
   style="fill:none;fill-rule:evenodd;stroke:none;stroke-width:0.91451252px;stroke-linecap:butt;stroke-linejoin:miter;stroke-opacity:1"
   d="M 150.72233,191.64072 C 148.27611,190.65103 146.2867,190.35964 144.60417,190.48337 C 142.94189,190.60561 143.41797,192.4259 143.34288,193.38879 C 143.25883,194.46648 143.1748,195.54415 143.09076,196.62183 C 142.99905,197.79793 143.41119,199.14722 143.31172,200.42279 C 143.23293,201.43311 143.15415,202.44343 143.07536,203.45375 C 142.95789,204.96011 142.52482,205.41446 145.50379,205.48515 C 146.57088,205.51045 146.91436,203.51527 147.23817,203.14764 C 147.42737,202.93283 147.61658,202.718 147.80579,202.50319 C 148.60215,201.59904 150.46724,201.54648 150.59664,199.8871 C 150.68703,198.72793 151.26196,197.98969 151.35335,196.81786 C 151.43739,195.74019 151.52143,194.66251 151.60547,193.58484 C 151.66195,192.86058 151.15267,193.08499 150.72233,191.64072 z"
   id="EFO_0001413"
   inkscape:label="gastrocnemius" />
    <path
   style="fill:none;fill-rule:evenodd;stroke:none;stroke-width:0.3595784px;stroke-linecap:butt;stroke-linejoin:miter;stroke-opacity:1"
   d="M 145.67828,192.70479 C 144.14635,192.93868 144.41692,193.90076 144.41692,194.70364 C 144.41692,195.25816 143.99647,195.88128 143.99647,196.47187 C 143.99647,196.95878 143.99647,197.44567 143.99647,197.93258 C 143.99647,198.45652 143.57602,198.74672 143.57602,199.23952 C 143.57602,199.82727 145.93684,199.34408 146.30896,199.16265 C 147.38162,198.63963 147.85106,197.2397 148.20101,196.47187 C 148.80125,195.15483 150.93396,194.5498 150.93396,192.85854 C 150.93396,192.56403 148.6912,192.61507 147.99078,192.55103 C 147.17736,192.47666 146.39608,192.59979 145.67828,192.70479 z"
   id="EFO_0001937"
   inkscape:label="vastus lateralis" />
    <path
   style="fill:none;fill-rule:evenodd;stroke:none;stroke-width:2.99568653px;stroke-linecap:butt;stroke-linejoin:miter;stroke-opacity:1"
   d="M 76.136305,73.772722 C 74.432107,69.563661 77.117003,66.971645 78.761952,63.6259 C 79.848837,61.415225 83.842556,59.483742 86.11376,57.751425 C 88.705154,55.774887 92.178014,56.149292 95.566088,56.149292 C 98.792661,56.149292 101.39239,55.63554 103.96816,56.683336 C 106.88687,57.87064 108.51539,59.693756 109.21945,62.557814 C 109.9251,65.428343 109.55562,67.663642 110.26971,70.568463 C 111.57145,75.863817 104.25845,73.772722 100.81738,73.772722 C 96.966431,73.772722 93.115485,73.772722 89.264535,73.772722 C 86.463846,73.772722 83.663156,73.772722 80.862467,73.772722 C 79.28708,73.772722 77.711692,73.772722 76.136305,73.772722 z"
   id="EFO_0000302"
   inkscape:label="Brain" />
  </g>
<g
   inkscape:groupmode="layer"
   id="layer4"
   inkscape:label="Callouts"
   style="display:inline">
    
    
    
    <text
   id="textCalloutUp1"
   xml:space="preserve"
   style="font-size:11px;font-style:normal;font-variant:normal;font-weight:bold;font-stretch:normal;text-align:start;line-height:125%;writing-mode:lr-tb;text-anchor:start;opacity:1;fill:#ffffff;fill-opacity:1;stroke:none;stroke-width:1px;stroke-linecap:butt;stroke-linejoin:miter;stroke-opacity:1;font-family:Verdana;-inkscape-font-specification:Verdana Bold"
   x="218.40559"
   y="23.686293"
   sodipodi:linespacing="125%"><tspan
     sodipodi:role="line"
     id="tspanCalloutUp1"
     x="218.40559"
     y="23.686293">2</tspan></text>





    <text
   id="textCalloutDn1"
   xml:space="preserve"
   style="font-size:11px;font-style:normal;font-variant:normal;font-weight:bold;font-stretch:normal;text-align:start;line-height:125%;writing-mode:lr-tb;text-anchor:start;opacity:1;fill:#ffffff;fill-opacity:1;stroke:none;stroke-width:1px;stroke-linecap:butt;stroke-linejoin:miter;stroke-opacity:1;font-family:Bitstream Vera Sans;-inkscape-font-specification:Bitstream Vera Sans Bold"
   x="230.40559"
   y="30.686291"
   sodipodi:linespacing="125%"><tspan
     sodipodi:role="line"
     id="tspanCalloutDn1"
     x="230.40559"
     y="30.686291">2</tspan></text>





    <text
   id="textCalloutCenter1"
   xml:space="preserve"
   style="font-size:11px;font-style:normal;font-variant:normal;font-weight:bold;font-stretch:normal;text-align:start;line-height:125%;writing-mode:lr-tb;text-anchor:start;opacity:1;fill:#ffffff;fill-opacity:1;stroke:none;stroke-width:1px;stroke-linecap:butt;stroke-linejoin:miter;stroke-opacity:1;font-family:Bitstream Vera Sans;-inkscape-font-specification:Bitstream Vera Sans Bold"
   x="225.40559"
   y="26.686293"
   sodipodi:linespacing="125%"><tspan
     sodipodi:role="line"
     id="tspanCalloutCenter1"
     x="225.40559"
     y="26.686293">2</tspan></text>





    <text
   xml:space="preserve"
   style="font-size:12px;font-style:normal;font-variant:normal;font-weight:normal;font-stretch:normal;text-align:start;line-height:100%;writing-mode:lr-tb;text-anchor:start;opacity:1;fill:#000000;fill-opacity:1;stroke:none;stroke-width:1px;stroke-linecap:butt;stroke-linejoin:miter;stroke-opacity:1;font-family:Bitstream Vera Sans;-inkscape-font-specification:Bitstream Vera Sans"
   x="156.6637"
   y="137.58073"
   id="textCalloutCaption1"
   sodipodi:linespacing="100%"><tspan
     sodipodi:role="line"
     id="tspanCalloutCaption1"
     x="156.6637"
     y="137.58073">no anatomogram</tspan></text>





    
    
    
    <text
   id="textCalloutUp2"
   xml:space="preserve"
   style="font-size:11px;font-style:normal;font-variant:normal;font-weight:bold;font-stretch:normal;text-align:start;line-height:125%;writing-mode:lr-tb;text-anchor:start;opacity:1;fill:#ffffff;fill-opacity:1;stroke:none;stroke-width:1px;stroke-linecap:butt;stroke-linejoin:miter;stroke-opacity:1;font-family:Bitstream Vera Sans;-inkscape-font-specification:Bitstream Vera Sans Bold"
   x="218.40559"
   y="53.686291"
   sodipodi:linespacing="125%"><tspan
     sodipodi:role="line"
     id="tspanCalloutUp2"
     x="218.40559"
     y="53.686291">2</tspan></text>





    <text
   id="textCalloutDn2"
   xml:space="preserve"
   style="font-size:11px;font-style:normal;font-variant:normal;font-weight:bold;font-stretch:normal;text-align:start;line-height:125%;writing-mode:lr-tb;text-anchor:start;opacity:1;fill:#ffffff;fill-opacity:1;stroke:none;stroke-width:1px;stroke-linecap:butt;stroke-linejoin:miter;stroke-opacity:1;font-family:Bitstream Vera Sans;-inkscape-font-specification:Bitstream Vera Sans Bold"
   x="230.40559"
   y="60.686291"
   sodipodi:linespacing="125%"><tspan
     sodipodi:role="line"
     id="tspanCalloutDn2"
     x="230.40559"
     y="60.686291">2</tspan></text>





    <text
   id="textCalloutCenter2"
   xml:space="preserve"
   style="font-size:11px;font-style:normal;font-variant:normal;font-weight:bold;font-stretch:normal;text-align:start;line-height:125%;writing-mode:lr-tb;text-anchor:start;opacity:1;fill:#ffffff;fill-opacity:1;stroke:none;stroke-width:1px;stroke-linecap:butt;stroke-linejoin:miter;stroke-opacity:1;font-family:Bitstream Vera Sans;-inkscape-font-specification:Bitstream Vera Sans Bold"
   x="225.40559"
   y="56.686291"
   sodipodi:linespacing="125%"><tspan
     sodipodi:role="line"
     id="tspanCalloutCenter2"
     x="225.40559"
     y="56.686291">2</tspan></text>





    




    
    
    
    




    




    




    




    
    
    
    




    <text
   id="textCalloutDn4"
   xml:space="preserve"
   style="font-size:11px;font-style:normal;font-variant:normal;font-weight:bold;font-stretch:normal;text-align:start;line-height:125%;writing-mode:lr-tb;text-anchor:start;opacity:1;fill:#ffffff;fill-opacity:1;stroke:none;stroke-width:1px;stroke-linecap:butt;stroke-linejoin:miter;stroke-opacity:1;font-family:Bitstream Vera Sans;-inkscape-font-specification:Bitstream Vera Sans Bold"
   x="230.40559"
   y="120.68629"
   sodipodi:linespacing="125%"><tspan
     sodipodi:role="line"
     id="tspanCalloutDn4"
     x="230.40559"
     y="120.68629">2</tspan></text>





    




    




    
    
    
    




    




    




    




    
    
    
    




    




    




    




    
    
    
    




    




    




    




    
    
    
    




    




    




    




    
    
    
    




    




    




    




  </g>
 
</svg>